<svg xmlns="http://www.w3.org/2000/svg" xmlns:xlink="http://www.w3.org/1999/xlink" width="15" height="9" viewBox="0 0 15 9"><defs><path id="eqaza" d="M271.12 60.48h.2l.08-.08v-.2l.44-.08-.16.36.16.2.04.08.08-.08v-.2h.16l.28.44.2-.16.16.08.48.96.24-.2.12.08.16.2-.12-.28.2-.12-.16-.52.16-.04.28.04.08-.04v-.16l.28-.36.28-.2.36-.24 1.2.52h.2l.08-.08v-.2l.44-.08-.16.36.16.2.04.08.08-.08v-.2h.16l.28.44.2-.16.16.08.48.96.24-.2.12.08.16.2.36.44.04.08-.04.28.12.28h-.12v.12h.04l.16.52-.08.64.08.28-.2-.08v.08l.04.2-.48.28-.64.16-.36.48-.72-.08h-.12l-1-.32-1-.64-.28-.36-.36-.08.08-.12-.19-.22-.05.42.08.28-.2-.08v.08l.04.2-.48.28-.64.16-.36.48-.72-.08h-.12l-1-.32-1-.64-.28-.36-.36-.08.08-.12-.2-.24v-.28l-.64-.36-.44-.2.08-.24h.08v-.2l.12-.2-.08-.28.16-.16h.2l-.12-.28.2-.12-.16-.52.16-.04.28.04.08-.04v-.16l.28-.36.28-.2.36-.24z"/></defs><g><g transform="translate(-266 -58)"><use fill="#f34949" xlink:href="#eqaza"/></g></g></svg>