<?xml version="1.0" encoding="utf-8"?><svg xmlns="http://www.w3.org/2000/svg" xmlns:xlink="http://www.w3.org/1999/xlink"><symbol viewBox="0 0 15 9" id="dots" xmlns="http://www.w3.org/2000/svg"><defs><path id="aa" d="M271.12 60.48h.2l.08-.08v-.2l.44-.08-.16.36.16.2.04.08.08-.08v-.2h.16l.28.44.2-.16.16.08.48.96.24-.2.12.08.16.2-.12-.28.2-.12-.16-.52.16-.04.28.04.08-.04v-.16l.28-.36.28-.2.36-.24 1.2.52h.2l.08-.08v-.2l.44-.08-.16.36.16.2.04.08.08-.08v-.2h.16l.28.44.2-.16.16.08.48.96.24-.2.12.08.16.2.36.44.04.08-.04.28.12.28h-.12v.12h.04l.16.52-.08.64.08.28-.2-.08v.08l.04.2-.48.28-.64.16-.36.48-.72-.08h-.12l-1-.32-1-.64-.28-.36-.36-.08.08-.12-.19-.22-.05.42.08.28-.2-.08v.08l.04.2-.48.28-.64.16-.36.48-.72-.08h-.12l-1-.32-1-.64-.28-.36-.36-.08.08-.12-.2-.24v-.28l-.64-.36-.44-.2.08-.24h.08v-.2l.12-.2-.08-.28.16-.16h.2l-.12-.28.2-.12-.16-.52.16-.04.28.04.08-.04v-.16l.28-.36.28-.2.36-.24z"/></defs><use xlink:href="#aa" transform="translate(-266 -58)"/></symbol><symbol viewBox="0 0 71 32" id="resto" xmlns="http://www.w3.org/2000/svg"><defs><path id="ba" d="M220.28 62v.04l-.03-.01zm-.03.03l-.05.05c-.12.12-.42.15-.69.26l.25.38c.72 1 .76 1 2.2 1.16.2.12.64.6 1.8.6.62 0 1.49-.2 2.56-.61a31.69 31.69 0 0 1 4.12-2.31c2-1.56 4.12-2.96 5.12-4.76 0-.52.04-1.32.08-2.48 0-.28.44-1.48 1.32-3.52.48-1.12.76-2.08.8-2.88.48-.36 1.2-.96 2.16-1.76-.12-.12 2.84 2.28 3.84 2.28h.24v.52c0 .74-.22 1.45-.64 2.13.5.02 1.06.06 1.72.11.28-.28.32-.48.92-1.72 0-.72.4-1.04 1.36-4.24.56-.56.88-2.12 1.2-3.72h.36c.16 0 1.12-.96 1.44-.68.16 0 1 .56 1.16.56.24 0 .72 1 .84 1.2l-.28.4c-.04.28-.16.6-.32 1-1.12 2.11-1.6 4.03-2.59 6.3.01-.02.03-.02.03-.02.04 0 .08.12.16.36.56.08 1.08.12 1.6.12 1.76 0 2.52-.2 4.92-.84h.28c-.04.12-1.32.72-1.48.88.04.12.16.16.32.16h.24c.12-.04.2-.04.24-.04-.2.4-2.08 1.08-2.24 1.2-.36 0-.2.64-1.6.96-.2.56-1.76.36-4.24 1.72-.32.84-.48 1.32-1.64 3.48 0 .28-.2.76-.64 1.44l-.28.8c0 .12-.04.32-.12.52-.36.6-1.12 2.8-1.36 2.96-.2.44-.32.8-.32 1.12.04.28.04.48.04.64 0 .16 0 .28-.04.36-.2.2-.64 2.2-1.64 3.36-.12-.84-.16-1.68-.16-2.52.04-.28.08-.68.16-1.2-.08-.08-.16-.2-.24-.4 0-.32.2-1.04.2-1.36l-.12-.32c0-.24.16-3.2 1.52-6.12a9.8 9.8 0 0 1 1-2.64c0-.26-.6-.9-1.85-2.33-1.37.98-3.95 2.86-3.95 5.3 0 .07.2 1.15.6 3.23l.6 3.24c0 .24-.2.88-.6 1.92-.88 2.32-1.16 1.88-1.44 1.88-1.08 0-2.24.04-3.96-.44-.6-1-2.4-.76-3.28-3.48a.77.77 0 0 0-.13-.25c-1.38 1.34-3.85 3.21-6.95 3.21-1.76 0-4.08-2.44-5.24-3.88a6.31 6.31 0 0 1-.8-1.38 17.4 17.4 0 0 1-1.48-.62l-.72-.24c-.6-.2-1.84-.8-3.64-1.72l-.24-.12c-.84-.36-1.84-.84-3-1.36l-.84-.28-.36.12c-.84.52-1.44 1.04-2.56 1.24l-.12.52v.32c0 .64-.4 1.44-.68 2.24v.12c0 .16-.48 1.8-.48 1.8V64c-.36.6-.4.76-.92 1.6l-.32.32c-.04.04-.2.04-.44.04-.04 0-.6-.28-1.2-1.12l-.08-.08v-.56c-.04-.04-.08-.08-.12-.2v-1.64c.04-.12.04-.24.04-.4 0-.16 0-.32-.04-.48.16-.48.24-1.4.32-2.24v-.08c0-.28.12-.8.32-1.52.56-2 .24-1.52.6-2.88.56-2.08.72-3.2 1.6-6.08v-.24l.2-.36v-.28c0-.28.16-.8.48-1.52.16-.36 0-.8 2.04-1.32.12.04.24.04.4.08h.48c.12-.04.28-.08.56-.12.6-.36 4-2.2 4.88-2.2-.04 0 1.84-.4 2.32-.4.56 0 1.16.12 1.92.4-.2-.16 2.52 1 2.52 3.88 0 .52-.04.92-.16 1.16v.12c-.68 1.68-.28 1.12-4.88 4.28.09-.06-2.56 1.32-2.56 1.76 0 .08.04.12.08.12l-.36.32c-.2.04-.28.28-.28.68v.2c-.08 0-.12.12-.12.4l-.04.04c0 .2 1.68.9 6.09 3.3a9.07 9.07 0 0 1-.09-1.14c.16-.32.32-.92.52-1.76 0-.44.48-.08.84-1.6.72-.44.2-.88 1.48-1.92l.72-.6c.4-.52 1.04-1.24 1.96-2.16l1.24-.68c.44-.2.68-.52.76-.92h.32c.16 0 .68.56.88.6l2.8.44c1.76.44 4.24 2.4 4.24 3.88 0 4.88-6.4 5.4-7 5.4-2.04 0-3.32-.24-3.92-.72a11.62 11.62 0 0 0-1.42 3.03l.38.21c.37.26.46.9.57.99zm10.7.65c-.02.03-.1.14-.25.3.17.07.32.1.46.1.2 0 .76-.24.96-.24.16 0 .64.56.84.56.12 0 .24-.12.4-.12.36 0 2.4.76 2.84.76.16 0 .4-.12.44-.12v-1.68c0-.68-.36-1.92-1.08-3.72l-4.34 3.35c-.07.25-.15.52-.26.81zm-17.8-10.52zm.85-6.56c.2-.2-2.08.6-2.72.6-.36.28-.92.32-3.24 1.92-.32.2-.76 1.08-1.68 3.04l-.44 1.76c.76-.2 1.56-.4 2.96-1 .6-.4.92.16 4.68-3.6a6.34 6.34 0 0 0 1.4-2.48c-.08 0-.56-.16-.96-.24zm11.8 6.44l-1.16.72c-2.04 1.16-2.64 2.52-3.88 4.16.52.16.8.24.84.24.28 0 .92-.32 2-1 2.64-1.68 2.64-2.72 2.92-3.64-.32-.32-.56-.48-.72-.48zm40.84 7.36c-.68 3.12-2.4 4.44-8.2 7.4-.08.04-.44.08-1.12.16a3.96 3.96 0 0 1-3.2 1.32c-.68 0-1.12-.08-1.28-.2l-1.48-1.24h-.12c-1.64 0-1.56-2.6-1.76-2.88.12-.2.2-.36.2-.48 0-.16-.24-.4-.24-.52 0-.48.24-1.72.24-2.2.2-.04 1-.32 1-.84 0-.16-.2-.88-.2-1 1.04-.88 1.04-1.24 2.44-3.48.64-1 5.84-6.16 6.4-6.16.16 0 .52.12.68.12.2 0 .56-.36 1.08-1.12.12.04.4.28.84.64l1.2.28c.32.16.8.36 1.44.6 2.64 0 2.96 3.24 2.96 5.92a7.8 7.8 0 0 1-.88 3.68zm-3.6-4.64a1.03 1.03 0 0 1-.44-.28.72.72 0 0 0 .12-.44c0-.48-.32-1.28-.76-1.28-.36 0-1.2.56-2.52 1.72-3.16 2.76-4.4 4.6-5.84 6.44-.16.16-.84 2.2-.84 2.48 0 .44.6 1.08 1.04 1.08 1.48 0 3.16-.64 5-1.88.44-.12.92-.32 1.52-.64.2-.2.6-.96 1.24-2.2.16-.32.64-2.84 1-3.04 0-.92.16-1.4.48-1.52z"/></defs><use xlink:href="#ba" transform="translate(-198 -39)"/></symbol><symbol viewBox="0 0 15 15" id="star" xmlns="http://www.w3.org/2000/svg"><defs><path id="ca" d="M1145.5 1835.17a194.9 194.9 0 0 1-1.53-4.26l-1.49 4.26a1046.8 1046.8 0 0 0-4.5.13l3.62 2.7a325.5 325.5 0 0 0-1.28 4.34c2.43-1.73 3.66-2.6 3.7-2.6l3.7 2.55c-.43-1.41-.87-2.85-1.3-4.32l3.56-2.74c-1.3-.04-2.8-.06-4.48-.06z"/></defs><use xlink:href="#ca" transform="translate(-1136 -1829)"/></symbol></svg>